<?xml version="1.0" encoding="UTF-8"?>
<!-- Generator: Adobe Illustrator 24.3.0, SVG Export Plug-In . SVG Version: 6.00 Build 0)  -->
<svg version="1.1" id="svg5551" inkscape:version="1.0 (4035a4fb49, 2020-05-01)" sodipodi:docname="Nickelodeon 1984 (Octopus).svg" xmlns:cc="http://creativecommons.org/ns#" xmlns:dc="http://purl.org/dc/elements/1.1/" xmlns:inkscape="http://www.inkscape.org/namespaces/inkscape" xmlns:rdf="http://www.w3.org/1999/02/22-rdf-syntax-ns#" xmlns:sodipodi="http://sodipodi.sourceforge.net/DTD/sodipodi-0.dtd" xmlns:svg="http://www.w3.org/2000/svg" xmlns="http://www.w3.org/2000/svg" xmlns:xlink="http://www.w3.org/1999/xlink" x="0px" y="0px" viewBox="0 0 274.1 216.4" style="enable-background:new 0 0 274.1 216.4;" xml:space="preserve">
<style type="text/css">
	.st0{fill:#231F20;}
</style>
<sodipodi:namedview bordercolor="#666666" borderopacity="1.0" id="base" inkscape:current-layer="layer1" inkscape:cx="182.71389" inkscape:cy="144.23752" inkscape:document-rotation="0" inkscape:document-units="mm" inkscape:pageopacity="0.0" inkscape:pageshadow="2" inkscape:window-height="1001" inkscape:window-maximized="1" inkscape:window-width="1920" inkscape:window-x="-9" inkscape:window-y="-9" inkscape:zoom="2.8390672" pagecolor="#ffffff" showgrid="false">
	</sodipodi:namedview>
<g id="layer1" transform="translate(-66.502483,-92.899473)" inkscape:groupmode="layer" inkscape:label="Layer 1">
	<g id="g6217">
		<path id="path6142" class="st0" d="M178.4,308.2c-0.2-0.6-0.1-2.5,0.3-4.3c4.9-21.2,5.1-25.4,1.8-38.5    c-3.7-14.8-6.5-20.6-9.7-20.6c-3.5,0-11.4,9.8-16.2,20.3c-5.1,11.1-6,24-2.2,32.1c1.6,3.4,1.6,7.6,0.1,8.6c-0.9,0.6-2.1,0.3-4.8-1    c-3.1-1.5-4-2.6-6.2-6.9c-2.2-4.3-2.7-6-2.9-11.6c-0.2-3.6,0.1-8.9,0.6-11.8c0.9-5.4,4-16.9,5.3-19.6c1.1-2.4,5-14,5.6-16.8    c0.6-3-0.2-3.8-4.2-3.8c-4.2,0-9.1,1.7-16.7,6c-16.7,9.2-28.1,22.8-28.8,34.2c-0.4,5.6-1.8,7.6-4.7,6.3    c-4.8-2.2-8.3-13.7-6.7-21.9c1.8-8.9,6.6-14.5,21.5-24.7c9.2-6.3,16.8-13,16.8-14.9c0-0.4-0.5-2-1.1-3.4    c-1.4-3.3-5.4-5.4-13.5-6.8c-7.4-1.3-17.4-5-26.9-9.9c-7.4-3.8-14.2-10-17-15.4c-2.1-4-2.7-9.5-1.3-11.3c1.6-2.1,4.3-1.1,9.3,3.6    c15.7,14.4,40.1,19.8,68.8,15c10-1.6,12.5-2.5,15.5-5.4c3.1-2.9,4.4-6.8,4.4-13.1c0-5.2-3-12.1-8.7-20.2    c-7.5-10.6-8.5-12.8-9.1-19.2c-0.9-10.5,2.6-19.7,10.5-27.6c9.7-9.6,19.1-12.7,39.1-12.7c16.5,0,24.3,2.2,34.1,9.5    c8.2,6.1,12.2,12.8,12.5,21.1c0.4,9.6-3.5,16.9-17.6,33.1c-5,5.8-7.2,11-7.2,17.6l0,5.5l3.6,3.2c5.7,5,11.9,6.7,23.3,6.2    c13.5-0.6,29-5,39.1-11.1c5.6-3.4,16.6-15,19.3-20.4c3.3-6.5,6.7-6.7,8.7-0.5c0.8,2.4,0.8,3.8,0.1,6.8c-3,13-11.1,21.2-31.3,31.3    c-7.9,4-10.6,6.2-10.7,9c-0.2,3.3,4.9,5.7,19.7,9.2c15,3.6,32.7,10.8,38.3,15.6c4.5,3.9,10.7,13.9,11.2,18.4    c0.9,6.9-5.7,5.2-13.9-3.6c-9.7-10.4-11.6-12-17.9-14.8c-2.7-1.2-6-2.6-7.2-3.2c-11.9-5.3-31.6-6.6-40.5-2.7    c-5.6,2.5-7.1,4.6-7.1,9.5c0,5,1.2,8.2,4.6,11.5c8.2,8.3,20.9,13,37.6,14.1c4.4,0.3,8.6,0.9,9.3,1.4c2.1,1.5,0.5,3.9-4.1,6.2    c-3.8,1.9-5,2.1-11.4,2c-10.6-0.1-20.7-3.9-33-12.5c-3.8-2.6-9.4-6.5-12.5-8.7c-6.1-4.2-8.1-4.7-10.7-2.6c-2.3,1.9-3,6.3-3.8,23.8    c-0.4,8.2-0.8,16.6-1,18.5c-0.7,7.7-3.5,14.6-7.8,19.4c-2.6,2.9-3.1,3.2-4.2,2.2c-1.5-1.3-1.3-5.9,0.6-13.5    c1.5-5.9,1.8-19.2,0.5-24c-1.4-5.1-8-18.1-10.6-20.8c-3-3.2-6.6-3.4-8.3-0.4c-1.6,2.8-2.8,8.7-3.6,18.2c-0.4,4.3-1,9.4-1.5,11.2    c-3.1,13.3-4,16.5-6.2,20.8c-2.5,5-6.5,10-8,10C179.2,309.3,178.6,308.8,178.4,308.2L178.4,308.2z M167.6,137.1    c2.7-1.4,3.7-3.2,3.7-6.7c0-5.7-5.8-8.7-10.5-5.6c-3.4,2.3-4.5,5.7-2.8,9.3C159.9,138.1,163.6,139.2,167.6,137.1L167.6,137.1z     M228.2,133.3c1.4-1.7,1.7-2.6,1.4-5c-0.6-4.2-2.7-6.1-6.9-6.1c-4.6,0-6.7,2.2-6.7,6.8c0,2.9,0.4,3.7,2.2,5.3    C221.1,136.8,225.6,136.3,228.2,133.3z"/>
	</g>
</g>
</svg>